<?xml version="1.0" standalone="no"?>
<!DOCTYPE svg PUBLIC "-//W3C//DTD SVG 20010904//EN"
 "http://www.w3.org/TR/2001/REC-SVG-20010904/DTD/svg10.dtd">
<svg version="1.0" xmlns="http://www.w3.org/2000/svg"
 width="290.000000pt" height="290.000000pt" viewBox="0 0 290.000000 290.000000"
 preserveAspectRatio="xMidYMid meet">
<metadata>
Created by potrace 1.14, written by Peter Selinger 2001-2017
</metadata>
<g transform="translate(0.000000,290.000000) scale(0.100000,-0.100000)"
fill="#000000" stroke="none">
<path d="M1318 2869 c-772 -64 -1372 -767 -1308 -1534 23 -283 114 -526 280
-747 348 -463 938 -678 1495 -544 540 130 955 552 1080 1097 38 167 38 409 0
592 -111 534 -540 973 -1079 1102 -89 22 -296 47 -351 44 -11 -1 -64 -5 -117
-10z m-540 -1129 c256 -136 245 -493 -18 -627 -47 -23 -67 -27 -140 -28 -73 0
-94 4 -148 29 -80 37 -152 114 -182 194 -31 81 -25 205 14 280 44 86 123 153
216 183 14 5 63 7 110 6 75 -3 93 -7 148 -37z m824 8 c70 -32 133 -96 167
-168 22 -47 26 -68 26 -150 0 -83 -4 -102 -28 -151 -33 -69 -99 -132 -175
-167 -48 -23 -70 -27 -142 -27 -71 1 -94 5 -141 28 -145 70 -229 231 -199 381
26 131 107 224 238 273 60 22 186 13 254 -19z m813 11 c73 -27 156 -104 192
-177 24 -49 28 -69 28 -147 0 -82 -3 -96 -33 -157 -38 -77 -92 -130 -171 -167
-47 -22 -69 -26 -141 -25 -105 1 -176 29 -245 99 -70 70 -99 141 -99 245 -1
77 2 92 32 152 39 80 111 148 185 177 72 27 179 28 252 0z"/>
</g>
</svg>
